# xmcd
# 
# Track frame offsets:
#     150
#     21674
#     40515
#     55067
#     76431
#     94985
#     114780
#     137028
#     151879
#     171774
#     193074
#     206424
# 
# Disc length: 3096
# 
# Revision: 1
# Processed by: cddbd v1.5.2PL0 Copyright (c) Steve Scherf et al.
# Submitted via: fre:ac v1.0.27
# 
DISCID=980c160c
DTITLE=Jim Byrnes - Everywhere West
DYEAR=2010
DGENRE=Blues
TTITLE0=Hot As A Pistol
TTITLE1=Yield Not To Temptation
TTITLE2=Bootlegger's Blues
TTITLE3=Black Nights
TTITLE4=Walk On
TTITLE5=No Mail Blues
TTITLE6=Storm Warning
TTITLE7=From Four Until Late
TTITLE8=Take Out Some Insurance On Me
TTITLE9=He Was A Friend Of Mine
TTITLE10=Can't Get That Stuff No More
TTITLE11=Me and Piney Brown
EXTD=YEAR: 2010
EXTT0=
EXTT1=
EXTT2=
EXTT3=
EXTT4=
EXTT5=
EXTT6=
EXTT7=
EXTT8=
EXTT9=
EXTT10=
EXTT11=
PLAYORDER=
